<mxfile host="app.diagrams.net" modified="2024-03-22T14:47:03.712Z" agent="Mozilla/5.0 (Macintosh; Intel Mac OS X 10.15; rv:123.0) Gecko/20100101 Firefox/123.0" etag="5lbdCBkMIlakzJN3N-oH" version="23.1.5" type="device">
  <diagram name="Modèle_de_données" id="ni98SVHszWj_1iTOYTVx">
    <mxGraphModel dx="1482" dy="821" grid="1" gridSize="10" guides="1" tooltips="1" connect="1" arrows="1" fold="1" page="1" pageScale="1" pageWidth="827" pageHeight="1169" math="0" shadow="0">
      <root>
        <mxCell id="0" />
        <mxCell id="1" parent="0" />
        <mxCell id="9CVE_AiKFq_cPYP5f1aX-1" value="&lt;span style=&quot;font-weight: normal;&quot;&gt;&lt;font style=&quot;font-size: 12px;&quot;&gt;&amp;nbsp;PK uniqueId: INTEGER NOT NULL&lt;/font&gt;&lt;/span&gt;" style="swimlane;fontStyle=1;align=left;verticalAlign=top;childLayout=stackLayout;horizontal=1;startSize=26;horizontalStack=0;resizeParent=1;resizeParentMax=0;resizeLast=0;collapsible=1;marginBottom=0;whiteSpace=wrap;html=1;" parent="1" vertex="1">
          <mxGeometry x="300" y="1150" width="260" height="86" as="geometry">
            <mxRectangle y="542" width="120" height="30" as="alternateBounds" />
          </mxGeometry>
        </mxCell>
        <mxCell id="9CVE_AiKFq_cPYP5f1aX-2" value="firstname: VARCHAR(255) NOT NULL" style="text;strokeColor=none;fillColor=none;align=left;verticalAlign=top;spacingLeft=4;spacingRight=4;overflow=hidden;rotatable=0;points=[[0,0.5],[1,0.5]];portConstraint=eastwest;whiteSpace=wrap;html=1;" parent="9CVE_AiKFq_cPYP5f1aX-1" vertex="1">
          <mxGeometry y="26" width="260" height="26" as="geometry" />
        </mxCell>
        <mxCell id="9CVE_AiKFq_cPYP5f1aX-3" value="" style="line;strokeWidth=1;fillColor=none;align=left;verticalAlign=middle;spacingTop=-1;spacingLeft=3;spacingRight=3;rotatable=0;labelPosition=right;points=[];portConstraint=eastwest;strokeColor=inherit;" parent="9CVE_AiKFq_cPYP5f1aX-1" vertex="1">
          <mxGeometry y="52" width="260" height="8" as="geometry" />
        </mxCell>
        <mxCell id="9CVE_AiKFq_cPYP5f1aX-4" value="lastname: VARCHAR(255) NOT NULL" style="text;strokeColor=none;fillColor=none;align=left;verticalAlign=top;spacingLeft=4;spacingRight=4;overflow=hidden;rotatable=0;points=[[0,0.5],[1,0.5]];portConstraint=eastwest;whiteSpace=wrap;html=1;" parent="9CVE_AiKFq_cPYP5f1aX-1" vertex="1">
          <mxGeometry y="60" width="260" height="26" as="geometry" />
        </mxCell>
        <mxCell id="9CVE_AiKFq_cPYP5f1aX-11" value="buyers" style="text;html=1;strokeColor=none;fillColor=#CCE5FF;align=left;verticalAlign=middle;whiteSpace=wrap;rounded=0;labelBackgroundColor=#D4E1F5;" parent="1" vertex="1">
          <mxGeometry x="300" y="1120" width="260" height="30" as="geometry" />
        </mxCell>
        <mxCell id="3mlDLEw-B3RgLAxNknUr-4" value="" style="edgeStyle=orthogonalEdgeStyle;rounded=0;orthogonalLoop=1;jettySize=auto;html=1;exitX=1;exitY=0.518;exitDx=0;exitDy=0;exitPerimeter=0;" parent="1" target="3mlDLEw-B3RgLAxNknUr-3" edge="1">
          <mxGeometry relative="1" as="geometry">
            <Array as="points">
              <mxPoint x="560" y="1330" />
              <mxPoint x="710" y="1330" />
              <mxPoint x="710" y="1160" />
            </Array>
            <mxPoint x="560" y="1313.54" as="sourcePoint" />
            <mxPoint x="850" y="1140" as="targetPoint" />
          </mxGeometry>
        </mxCell>
        <mxCell id="9CVE_AiKFq_cPYP5f1aX-12" value="&lt;span style=&quot;font-weight: normal;&quot;&gt;&lt;font style=&quot;font-size: 12px;&quot;&gt;company_associated_id: INTEGER&lt;/font&gt; NOT NULL&lt;/span&gt;" style="swimlane;fontStyle=1;align=left;verticalAlign=top;childLayout=stackLayout;horizontal=1;startSize=30;horizontalStack=0;resizeParent=1;resizeParentMax=0;resizeLast=0;collapsible=1;marginBottom=0;whiteSpace=wrap;html=1;" parent="1" vertex="1">
          <mxGeometry x="300" y="1318" width="260" height="30" as="geometry">
            <mxRectangle x="300" y="1690" width="120" height="30" as="alternateBounds" />
          </mxGeometry>
        </mxCell>
        <mxCell id="9CVE_AiKFq_cPYP5f1aX-38" value="&lt;span style=&quot;font-weight: normal;&quot;&gt;&lt;font style=&quot;font-size: 12px;&quot;&gt;&amp;nbsp;PK uniqueId: INTEGER NOT NULL&lt;/font&gt;&lt;/span&gt;" style="swimlane;fontStyle=1;align=left;verticalAlign=top;childLayout=stackLayout;horizontal=1;startSize=26;horizontalStack=0;resizeParent=1;resizeParentMax=0;resizeLast=0;collapsible=1;marginBottom=0;whiteSpace=wrap;html=1;" parent="1" vertex="1">
          <mxGeometry x="600" y="1420" width="260" height="112" as="geometry">
            <mxRectangle y="542" width="120" height="30" as="alternateBounds" />
          </mxGeometry>
        </mxCell>
        <mxCell id="9CVE_AiKFq_cPYP5f1aX-39" value="libelle: VARCHAR(255) NOT NULL" style="text;strokeColor=none;fillColor=none;align=left;verticalAlign=top;spacingLeft=4;spacingRight=4;overflow=hidden;rotatable=0;points=[[0,0.5],[1,0.5]];portConstraint=eastwest;whiteSpace=wrap;html=1;" parent="9CVE_AiKFq_cPYP5f1aX-38" vertex="1">
          <mxGeometry y="26" width="260" height="26" as="geometry" />
        </mxCell>
        <mxCell id="9CVE_AiKFq_cPYP5f1aX-40" value="content: TEXTAREA NOT NULL" style="swimlane;fontStyle=1;align=left;verticalAlign=top;childLayout=stackLayout;horizontal=1;startSize=34;horizontalStack=0;resizeParent=1;resizeParentMax=0;resizeLast=0;collapsible=1;marginBottom=0;whiteSpace=wrap;html=1;" parent="9CVE_AiKFq_cPYP5f1aX-38" vertex="1">
          <mxGeometry y="52" width="260" height="60" as="geometry">
            <mxRectangle y="542" width="120" height="30" as="alternateBounds" />
          </mxGeometry>
        </mxCell>
        <mxCell id="9CVE_AiKFq_cPYP5f1aX-41" value="price: DECIMAL NOT NULL" style="text;strokeColor=none;fillColor=none;align=left;verticalAlign=top;spacingLeft=4;spacingRight=4;overflow=hidden;rotatable=0;points=[[0,0.5],[1,0.5]];portConstraint=eastwest;whiteSpace=wrap;html=1;" parent="9CVE_AiKFq_cPYP5f1aX-40" vertex="1">
          <mxGeometry y="34" width="260" height="26" as="geometry" />
        </mxCell>
        <mxCell id="9CVE_AiKFq_cPYP5f1aX-45" value="products" style="text;html=1;strokeColor=none;fillColor=#F19C99;align=left;verticalAlign=middle;whiteSpace=wrap;rounded=0;labelBackgroundColor=#D4E1F5;" parent="1" vertex="1">
          <mxGeometry x="600" y="1390" width="260" height="30" as="geometry" />
        </mxCell>
        <mxCell id="9CVE_AiKFq_cPYP5f1aX-57" value="&lt;span style=&quot;font-weight: normal;&quot;&gt;&lt;font style=&quot;font-size: 12px;&quot;&gt;&amp;nbsp;PK uniqueId: INTEGER NOT NULL&lt;/font&gt;&lt;/span&gt;" style="swimlane;fontStyle=1;align=left;verticalAlign=top;childLayout=stackLayout;horizontal=1;startSize=26;horizontalStack=0;resizeParent=1;resizeParentMax=0;resizeLast=0;collapsible=1;marginBottom=0;whiteSpace=wrap;html=1;" parent="1" vertex="1">
          <mxGeometry x="850" y="1150" width="260" height="110" as="geometry">
            <mxRectangle y="542" width="120" height="30" as="alternateBounds" />
          </mxGeometry>
        </mxCell>
        <mxCell id="9CVE_AiKFq_cPYP5f1aX-58" value="email: VARCHAR(255) NOT NULL" style="text;strokeColor=none;fillColor=none;align=left;verticalAlign=top;spacingLeft=4;spacingRight=4;overflow=hidden;rotatable=0;points=[[0,0.5],[1,0.5]];portConstraint=eastwest;whiteSpace=wrap;html=1;" parent="9CVE_AiKFq_cPYP5f1aX-57" vertex="1">
          <mxGeometry y="26" width="260" height="26" as="geometry" />
        </mxCell>
        <mxCell id="9CVE_AiKFq_cPYP5f1aX-59" value="" style="line;strokeWidth=1;fillColor=none;align=left;verticalAlign=middle;spacingTop=-1;spacingLeft=3;spacingRight=3;rotatable=0;labelPosition=right;points=[];portConstraint=eastwest;strokeColor=inherit;" parent="9CVE_AiKFq_cPYP5f1aX-57" vertex="1">
          <mxGeometry y="52" width="260" height="8" as="geometry" />
        </mxCell>
        <mxCell id="9CVE_AiKFq_cPYP5f1aX-60" value="password: VARCHAR(255) NOT NULL" style="text;strokeColor=none;fillColor=none;align=left;verticalAlign=top;spacingLeft=4;spacingRight=4;overflow=hidden;rotatable=0;points=[[0,0.5],[1,0.5]];portConstraint=eastwest;whiteSpace=wrap;html=1;" parent="9CVE_AiKFq_cPYP5f1aX-57" vertex="1">
          <mxGeometry y="60" width="260" height="26" as="geometry" />
        </mxCell>
        <mxCell id="9CVE_AiKFq_cPYP5f1aX-61" value="&lt;span style=&quot;font-weight: normal;&quot;&gt;&lt;font style=&quot;font-size: 12px;&quot;&gt;&amp;nbsp;company: VARCHAR(255)&lt;/font&gt; NOT NULL&lt;/span&gt;" style="swimlane;fontStyle=1;align=left;verticalAlign=top;childLayout=stackLayout;horizontal=1;startSize=26;horizontalStack=0;resizeParent=1;resizeParentMax=0;resizeLast=0;collapsible=1;marginBottom=0;whiteSpace=wrap;html=1;" parent="9CVE_AiKFq_cPYP5f1aX-57" vertex="1">
          <mxGeometry y="86" width="260" height="24" as="geometry">
            <mxRectangle y="542" width="120" height="30" as="alternateBounds" />
          </mxGeometry>
        </mxCell>
        <mxCell id="9CVE_AiKFq_cPYP5f1aX-67" value="users" style="text;html=1;strokeColor=none;fillColor=#E1D5E7;align=left;verticalAlign=middle;whiteSpace=wrap;rounded=0;labelBackgroundColor=#D4E1F5;" parent="1" vertex="1">
          <mxGeometry x="850" y="1120" width="260" height="30" as="geometry" />
        </mxCell>
        <mxCell id="Kw3-ZxFMyjBxTuiB0_CE-2" value="address: VARCHAR(255) NOT NULL" style="text;strokeColor=none;fillColor=none;align=left;verticalAlign=top;spacingLeft=4;spacingRight=4;overflow=hidden;rotatable=0;points=[[0,0.5],[1,0.5]];portConstraint=eastwest;whiteSpace=wrap;html=1;" parent="1" vertex="1">
          <mxGeometry x="300" y="1263" width="260" height="26" as="geometry" />
        </mxCell>
        <mxCell id="Kw3-ZxFMyjBxTuiB0_CE-3" value="&lt;span style=&quot;font-weight: normal;&quot;&gt;&lt;font style=&quot;font-size: 12px;&quot;&gt;&amp;nbsp;email: VARCHAR (255)&lt;/font&gt; NOT NULL&lt;/span&gt;" style="swimlane;fontStyle=1;align=left;verticalAlign=top;childLayout=stackLayout;horizontal=1;startSize=26;horizontalStack=0;resizeParent=1;resizeParentMax=0;resizeLast=0;collapsible=1;marginBottom=0;whiteSpace=wrap;html=1;" parent="1" vertex="1">
          <mxGeometry x="300" y="1237" width="260" height="52" as="geometry">
            <mxRectangle y="542" width="120" height="30" as="alternateBounds" />
          </mxGeometry>
        </mxCell>
        <mxCell id="3mlDLEw-B3RgLAxNknUr-3" value="" style="shape=waypoint;sketch=0;size=6;pointerEvents=1;points=[];fillColor=default;resizable=0;rotatable=0;perimeter=centerPerimeter;snapToPoint=1;align=left;verticalAlign=top;fontStyle=1;startSize=30;" parent="1" vertex="1">
          <mxGeometry x="840" y="1150" width="20" height="20" as="geometry" />
        </mxCell>
        <mxCell id="mp3AuXdWtQBJXFSvWpy--1" value="&lt;span style=&quot;font-weight: normal;&quot;&gt;&lt;font style=&quot;font-size: 12px;&quot;&gt;&amp;nbsp;roles: VARCHAR(255)&lt;/font&gt; NOT NULL&lt;/span&gt;" style="swimlane;fontStyle=1;align=left;verticalAlign=top;childLayout=stackLayout;horizontal=1;startSize=30;horizontalStack=0;resizeParent=1;resizeParentMax=0;resizeLast=0;collapsible=1;marginBottom=0;whiteSpace=wrap;html=1;" vertex="1" parent="1">
          <mxGeometry x="850" y="1260" width="260" height="30" as="geometry">
            <mxRectangle x="300" y="1690" width="120" height="30" as="alternateBounds" />
          </mxGeometry>
        </mxCell>
        <mxCell id="mp3AuXdWtQBJXFSvWpy--2" value="&lt;span style=&quot;font-weight: normal;&quot;&gt;&lt;font style=&quot;font-size: 12px;&quot;&gt;phone: VARCHARD(255)&lt;/font&gt; NOT NULL&lt;/span&gt;" style="swimlane;fontStyle=1;align=left;verticalAlign=top;childLayout=stackLayout;horizontal=1;startSize=30;horizontalStack=0;resizeParent=1;resizeParentMax=0;resizeLast=0;collapsible=1;marginBottom=0;whiteSpace=wrap;html=1;" vertex="1" parent="1">
          <mxGeometry x="300" y="1290" width="260" height="30" as="geometry">
            <mxRectangle x="300" y="1690" width="120" height="30" as="alternateBounds" />
          </mxGeometry>
        </mxCell>
      </root>
    </mxGraphModel>
  </diagram>
</mxfile>
